<svg id="visual" viewBox="0 0 900 600" width="900" height="600" xmlns="http://www.w3.org/2000/svg" xmlns:xlink="http://www.w3.org/1999/xlink" version="1.1"><rect x="0" y="0" width="900" height="600" fill="#101728"></rect><path d="M0 410L16.7 405.8C33.3 401.7 66.7 393.3 100 374.8C133.3 356.3 166.7 327.7 200 323.3C233.3 319 266.7 339 300 347.3C333.3 355.7 366.7 352.3 400 346.7C433.3 341 466.7 333 500 343.3C533.3 353.7 566.7 382.3 600 386.3C633.3 390.3 666.7 369.7 700 360.2C733.3 350.7 766.7 352.3 800 345.7C833.3 339 866.7 324 883.3 316.5L900 309L900 601L883.3 601C866.7 601 833.3 601 800 601C766.7 601 733.3 601 700 601C666.7 601 633.3 601 600 601C566.7 601 533.3 601 500 601C466.7 601 433.3 601 400 601C366.7 601 333.3 601 300 601C266.7 601 233.3 601 200 601C166.7 601 133.3 601 100 601C66.7 601 33.3 601 16.7 601L0 601Z" fill="#071179"></path><path d="M0 455L16.7 446.3C33.3 437.7 66.7 420.3 100 413.8C133.3 407.3 166.7 411.7 200 419.7C233.3 427.7 266.7 439.3 300 434.3C333.3 429.3 366.7 407.7 400 408.5C433.3 409.3 466.7 432.7 500 428.3C533.3 424 566.7 392 600 375.7C633.3 359.3 666.7 358.7 700 370.5C733.3 382.3 766.7 406.7 800 406.8C833.3 407 866.7 383 883.3 371L900 359L900 601L883.3 601C866.7 601 833.3 601 800 601C766.7 601 733.3 601 700 601C666.7 601 633.3 601 600 601C566.7 601 533.3 601 500 601C466.7 601 433.3 601 400 601C366.7 601 333.3 601 300 601C266.7 601 233.3 601 200 601C166.7 601 133.3 601 100 601C66.7 601 33.3 601 16.7 601L0 601Z" fill="#5a0376"></path><path d="M0 424L16.7 430C33.3 436 66.7 448 100 446C133.3 444 166.7 428 200 430C233.3 432 266.7 452 300 451C333.3 450 366.7 428 400 424.8C433.3 421.7 466.7 437.3 500 441.7C533.3 446 566.7 439 600 444.5C633.3 450 666.7 468 700 468.5C733.3 469 766.7 452 800 439.8C833.3 427.7 866.7 420.3 883.3 416.7L900 413L900 601L883.3 601C866.7 601 833.3 601 800 601C766.7 601 733.3 601 700 601C666.7 601 633.3 601 600 601C566.7 601 533.3 601 500 601C466.7 601 433.3 601 400 601C366.7 601 333.3 601 300 601C266.7 601 233.3 601 200 601C166.7 601 133.3 601 100 601C66.7 601 33.3 601 16.7 601L0 601Z" fill="#85006f"></path><path d="M0 476L16.7 477.3C33.3 478.7 66.7 481.3 100 485.5C133.3 489.7 166.7 495.3 200 500.8C233.3 506.3 266.7 511.7 300 509.8C333.3 508 366.7 499 400 494.3C433.3 489.7 466.7 489.3 500 493C533.3 496.7 566.7 504.3 600 510.8C633.3 517.3 666.7 522.7 700 513.7C733.3 504.7 766.7 481.3 800 480C833.3 478.7 866.7 499.3 883.3 509.7L900 520L900 601L883.3 601C866.7 601 833.3 601 800 601C766.7 601 733.3 601 700 601C666.7 601 633.3 601 600 601C566.7 601 533.3 601 500 601C466.7 601 433.3 601 400 601C366.7 601 333.3 601 300 601C266.7 601 233.3 601 200 601C166.7 601 133.3 601 100 601C66.7 601 33.3 601 16.7 601L0 601Z" fill="#a60065"></path><path d="M0 525L16.7 530C33.3 535 66.7 545 100 546.2C133.3 547.3 166.7 539.7 200 540.7C233.3 541.7 266.7 551.3 300 556.2C333.3 561 366.7 561 400 553.8C433.3 546.7 466.7 532.3 500 528.5C533.3 524.7 566.7 531.3 600 532.7C633.3 534 666.7 530 700 526.5C733.3 523 766.7 520 800 523C833.3 526 866.7 535 883.3 539.5L900 544L900 601L883.3 601C866.7 601 833.3 601 800 601C766.7 601 733.3 601 700 601C666.7 601 633.3 601 600 601C566.7 601 533.3 601 500 601C466.7 601 433.3 601 400 601C366.7 601 333.3 601 300 601C266.7 601 233.3 601 200 601C166.7 601 133.3 601 100 601C66.7 601 33.3 601 16.7 601L0 601Z" fill="#c10e58"></path></svg>