<svg id="visual" viewBox="0 0 500 100" width="500" height="100" xmlns="http://www.w3.org/2000/svg" xmlns:xlink="http://www.w3.org/1999/xlink" version="1.1"><rect x="0" y="0" width="500" height="100" fill="#d2d3db"></rect><path d="M0 55L10.5 55.7C21 56.3 42 57.7 62.8 57.2C83.7 56.7 104.3 54.3 125.2 56C146 57.7 167 63.3 187.8 66.2C208.7 69 229.3 69 250.2 65.2C271 61.3 292 53.7 312.8 52C333.7 50.3 354.3 54.7 375.2 56.3C396 58 417 57 437.8 56.8C458.7 56.7 479.3 57.3 489.7 57.7L500 58L500 0L489.7 0C479.3 0 458.7 0 437.8 0C417 0 396 0 375.2 0C354.3 0 333.7 0 312.8 0C292 0 271 0 250.2 0C229.3 0 208.7 0 187.8 0C167 0 146 0 125.2 0C104.3 0 83.7 0 62.8 0C42 0 21 0 10.5 0L0 0Z" fill="#d2d3db"></path><path d="M0 58L10.5 56.8C21 55.7 42 53.3 62.8 49.7C83.7 46 104.3 41 125.2 42.3C146 43.7 167 51.3 187.8 51.5C208.7 51.7 229.3 44.3 250.2 43.2C271 42 292 47 312.8 47.3C333.7 47.7 354.3 43.3 375.2 44.8C396 46.3 417 53.7 437.8 53.2C458.7 52.7 479.3 44.3 489.7 40.2L500 36L500 0L489.7 0C479.3 0 458.7 0 437.8 0C417 0 396 0 375.2 0C354.3 0 333.7 0 312.8 0C292 0 271 0 250.2 0C229.3 0 208.7 0 187.8 0C167 0 146 0 125.2 0C104.3 0 83.7 0 62.8 0C42 0 21 0 10.5 0L0 0Z" fill="#dcdce2"></path><path d="M0 37L10.5 37C21 37 42 37 62.8 35.2C83.7 33.3 104.3 29.7 125.2 29.7C146 29.7 167 33.3 187.8 34C208.7 34.7 229.3 32.3 250.2 31C271 29.7 292 29.3 312.8 29.3C333.7 29.3 354.3 29.7 375.2 29.5C396 29.3 417 28.7 437.8 28.2C458.7 27.7 479.3 27.3 489.7 27.2L500 27L500 0L489.7 0C479.3 0 458.7 0 437.8 0C417 0 396 0 375.2 0C354.3 0 333.7 0 312.8 0C292 0 271 0 250.2 0C229.3 0 208.7 0 187.8 0C167 0 146 0 125.2 0C104.3 0 83.7 0 62.8 0C42 0 21 0 10.5 0L0 0Z" fill="#e6e6ea"></path><path d="M0 29L10.5 28.7C21 28.3 42 27.7 62.8 25.5C83.7 23.3 104.3 19.7 125.2 18.5C146 17.3 167 18.7 187.8 20.7C208.7 22.7 229.3 25.3 250.2 25.5C271 25.7 292 23.3 312.8 22.3C333.7 21.3 354.3 21.7 375.2 23.8C396 26 417 30 437.8 29.7C458.7 29.3 479.3 24.7 489.7 22.3L500 20L500 0L489.7 0C479.3 0 458.7 0 437.8 0C417 0 396 0 375.2 0C354.3 0 333.7 0 312.8 0C292 0 271 0 250.2 0C229.3 0 208.7 0 187.8 0C167 0 146 0 125.2 0C104.3 0 83.7 0 62.8 0C42 0 21 0 10.5 0L0 0Z" fill="#f0f0f2"></path><path d="M0 16L10.5 15.8C21 15.7 42 15.3 62.8 14.5C83.7 13.7 104.3 12.3 125.2 12.7C146 13 167 15 187.8 14.5C208.7 14 229.3 11 250.2 9.5C271 8 292 8 312.8 9.7C333.7 11.3 354.3 14.7 375.2 14.5C396 14.3 417 10.7 437.8 9.8C458.7 9 479.3 11 489.7 12L500 13L500 0L489.7 0C479.3 0 458.7 0 437.8 0C417 0 396 0 375.2 0C354.3 0 333.7 0 312.8 0C292 0 271 0 250.2 0C229.3 0 208.7 0 187.8 0C167 0 146 0 125.2 0C104.3 0 83.7 0 62.8 0C42 0 21 0 10.5 0L0 0Z" fill="#fafafa"></path></svg>