<svg id="visual" viewBox="0 0 500 100" width="500" height="100" xmlns="http://www.w3.org/2000/svg" xmlns:xlink="http://www.w3.org/1999/xlink" version="1.1"><rect x="0" y="0" width="500" height="100" fill="#060730"></rect><path d="M0 56L5.2 60.3C10.3 64.7 20.7 73.3 31.2 76.5C41.7 79.7 52.3 77.3 62.8 72C73.3 66.7 83.7 58.3 94 56.3C104.3 54.3 114.7 58.7 125 64.5C135.3 70.3 145.7 77.7 156.2 78.5C166.7 79.3 177.3 73.7 187.8 72.5C198.3 71.3 208.7 74.7 219 77.3C229.3 80 239.7 82 250 81.2C260.3 80.3 270.7 76.7 281.2 76.2C291.7 75.7 302.3 78.3 312.8 75.3C323.3 72.3 333.7 63.7 344 62.2C354.3 60.7 364.7 66.3 375 65.2C385.3 64 395.7 56 406.2 56C416.7 56 427.3 64 437.8 69.2C448.3 74.3 458.7 76.7 469 72.7C479.3 68.7 489.7 58.3 494.8 53.2L500 48L500 0L494.8 0C489.7 0 479.3 0 469 0C458.7 0 448.3 0 437.8 0C427.3 0 416.7 0 406.2 0C395.7 0 385.3 0 375 0C364.7 0 354.3 0 344 0C333.7 0 323.3 0 312.8 0C302.3 0 291.7 0 281.2 0C270.7 0 260.3 0 250 0C239.7 0 229.3 0 219 0C208.7 0 198.3 0 187.8 0C177.3 0 166.7 0 156.2 0C145.7 0 135.3 0 125 0C114.7 0 104.3 0 94 0C83.7 0 73.3 0 62.8 0C52.3 0 41.7 0 31.2 0C20.7 0 10.3 0 5.2 0L0 0Z" fill="#672722"></path><path d="M0 45L5.2 48C10.3 51 20.7 57 31.2 56.3C41.7 55.7 52.3 48.3 62.8 45.7C73.3 43 83.7 45 94 45C104.3 45 114.7 43 125 43.5C135.3 44 145.7 47 156.2 51C166.7 55 177.3 60 187.8 58.2C198.3 56.3 208.7 47.7 219 45.2C229.3 42.7 239.7 46.3 250 50.7C260.3 55 270.7 60 281.2 61.5C291.7 63 302.3 61 312.8 57.2C323.3 53.3 333.7 47.7 344 44C354.3 40.3 364.7 38.7 375 40.7C385.3 42.7 395.7 48.3 406.2 51.5C416.7 54.7 427.3 55.3 437.8 54C448.3 52.7 458.7 49.3 469 49.2C479.3 49 489.7 52 494.8 53.5L500 55L500 0L494.8 0C489.7 0 479.3 0 469 0C458.7 0 448.3 0 437.8 0C427.3 0 416.7 0 406.2 0C395.7 0 385.3 0 375 0C364.7 0 354.3 0 344 0C333.7 0 323.3 0 312.8 0C302.3 0 291.7 0 281.2 0C270.7 0 260.3 0 250 0C239.7 0 229.3 0 219 0C208.7 0 198.3 0 187.8 0C177.3 0 166.7 0 156.2 0C145.7 0 135.3 0 125 0C114.7 0 104.3 0 94 0C83.7 0 73.3 0 62.8 0C52.3 0 41.7 0 31.2 0C20.7 0 10.3 0 5.2 0L0 0Z" fill="#571e30"></path><path d="M0 37L5.2 38C10.3 39 20.7 41 31.2 42.5C41.7 44 52.3 45 62.8 46.3C73.3 47.7 83.7 49.3 94 49.7C104.3 50 114.7 49 125 48.2C135.3 47.3 145.7 46.7 156.2 47.3C166.7 48 177.3 50 187.8 46.8C198.3 43.7 208.7 35.3 219 31.5C229.3 27.7 239.7 28.3 250 33C260.3 37.7 270.7 46.3 281.2 50.5C291.7 54.7 302.3 54.3 312.8 51.3C323.3 48.3 333.7 42.7 344 41.3C354.3 40 364.7 43 375 41.5C385.3 40 395.7 34 406.2 33.3C416.7 32.7 427.3 37.3 437.8 40.8C448.3 44.3 458.7 46.7 469 47.3C479.3 48 489.7 47 494.8 46.5L500 46L500 0L494.8 0C489.7 0 479.3 0 469 0C458.7 0 448.3 0 437.8 0C427.3 0 416.7 0 406.2 0C395.7 0 385.3 0 375 0C364.7 0 354.3 0 344 0C333.7 0 323.3 0 312.8 0C302.3 0 291.7 0 281.2 0C270.7 0 260.3 0 250 0C239.7 0 229.3 0 219 0C208.7 0 198.3 0 187.8 0C177.3 0 166.7 0 156.2 0C145.7 0 135.3 0 125 0C114.7 0 104.3 0 94 0C83.7 0 73.3 0 62.8 0C52.3 0 41.7 0 31.2 0C20.7 0 10.3 0 5.2 0L0 0Z" fill="#401c36"></path><path d="M0 38L5.2 36.8C10.3 35.7 20.7 33.3 31.2 30.3C41.7 27.3 52.3 23.7 62.8 23.2C73.3 22.7 83.7 25.3 94 25.3C104.3 25.3 114.7 22.7 125 24.8C135.3 27 145.7 34 156.2 35.5C166.7 37 177.3 33 187.8 29.5C198.3 26 208.7 23 219 24.2C229.3 25.3 239.7 30.7 250 32.7C260.3 34.7 270.7 33.3 281.2 30.2C291.7 27 302.3 22 312.8 22.3C323.3 22.7 333.7 28.3 344 29.7C354.3 31 364.7 28 375 25C385.3 22 395.7 19 406.2 21C416.7 23 427.3 30 437.8 33.2C448.3 36.3 458.7 35.7 469 32.8C479.3 30 489.7 25 494.8 22.5L500 20L500 0L494.8 0C489.7 0 479.3 0 469 0C458.7 0 448.3 0 437.8 0C427.3 0 416.7 0 406.2 0C395.7 0 385.3 0 375 0C364.7 0 354.3 0 344 0C333.7 0 323.3 0 312.8 0C302.3 0 291.7 0 281.2 0C270.7 0 260.3 0 250 0C239.7 0 229.3 0 219 0C208.7 0 198.3 0 187.8 0C177.3 0 166.7 0 156.2 0C145.7 0 135.3 0 125 0C114.7 0 104.3 0 94 0C83.7 0 73.3 0 62.8 0C52.3 0 41.7 0 31.2 0C20.7 0 10.3 0 5.2 0L0 0Z" fill="#261b33"></path><path d="M0 12L5.2 13.2C10.3 14.3 20.7 16.7 31.2 18.5C41.7 20.3 52.3 21.7 62.8 19.8C73.3 18 83.7 13 94 10.2C104.3 7.3 114.7 6.7 125 8.5C135.3 10.3 145.7 14.7 156.2 15.5C166.7 16.3 177.3 13.7 187.8 13.8C198.3 14 208.7 17 219 16.3C229.3 15.7 239.7 11.3 250 10.5C260.3 9.7 270.7 12.3 281.2 13.5C291.7 14.7 302.3 14.3 312.8 14.8C323.3 15.3 333.7 16.7 344 17.8C354.3 19 364.7 20 375 20.2C385.3 20.3 395.7 19.7 406.2 17.5C416.7 15.3 427.3 11.7 437.8 10.8C448.3 10 458.7 12 469 13C479.3 14 489.7 14 494.8 14L500 14L500 0L494.8 0C489.7 0 479.3 0 469 0C458.7 0 448.3 0 437.8 0C427.3 0 416.7 0 406.2 0C395.7 0 385.3 0 375 0C364.7 0 354.3 0 344 0C333.7 0 323.3 0 312.8 0C302.3 0 291.7 0 281.2 0C270.7 0 260.3 0 250 0C239.7 0 229.3 0 219 0C208.7 0 198.3 0 187.8 0C177.3 0 166.7 0 156.2 0C145.7 0 135.3 0 125 0C114.7 0 104.3 0 94 0C83.7 0 73.3 0 62.8 0C52.3 0 41.7 0 31.2 0C20.7 0 10.3 0 5.2 0L0 0Z" fill="#101728"></path></svg>