<svg id="visual" viewBox="0 0 1080 200" width="1080" height="200" xmlns="http://www.w3.org/2000/svg" xmlns:xlink="http://www.w3.org/1999/xlink" version="1.1"><rect x="0" y="0" width="1080" height="200" fill="#101728"></rect><path d="M0 94L20 91.7C40 89.3 80 84.7 120 74.3C160 64 200 48 240 45.7C280 43.3 320 54.7 360 59.3C400 64 440 62 480 58.8C520 55.7 560 51.3 600 57.2C640 63 680 79 720 81.2C760 83.3 800 71.7 840 66.3C880 61 920 62 960 58.3C1000 54.7 1040 46.3 1060 42.2L1080 38L1080 201L1060 201C1040 201 1000 201 960 201C920 201 880 201 840 201C800 201 760 201 720 201C680 201 640 201 600 201C560 201 520 201 480 201C440 201 400 201 360 201C320 201 280 201 240 201C200 201 160 201 120 201C80 201 40 201 20 201L0 201Z" fill="#071179"></path><path d="M0 119L20 114.2C40 109.3 80 99.7 120 96.2C160 92.7 200 95.3 240 99.8C280 104.3 320 110.7 360 107.8C400 105 440 93 480 93.3C520 93.7 560 106.3 600 103.8C640 101.3 680 83.7 720 74.7C760 65.7 800 65.3 840 72C880 78.7 920 92.3 960 92.5C1000 92.7 1040 79.3 1060 72.7L1080 66L1080 201L1060 201C1040 201 1000 201 960 201C920 201 880 201 840 201C800 201 760 201 720 201C680 201 640 201 600 201C560 201 520 201 480 201C440 201 400 201 360 201C320 201 280 201 240 201C200 201 160 201 120 201C80 201 40 201 20 201L0 201Z" fill="#5a0376"></path><path d="M0 102L20 105.3C40 108.7 80 115.3 120 114.2C160 113 200 104 240 105.2C280 106.3 320 117.7 360 117.2C400 116.7 440 104.3 480 102.5C520 100.7 560 109.3 600 111.7C640 114 680 110 720 113C760 116 800 126 840 126.3C880 126.7 920 117.3 960 110.7C1000 104 1040 100 1060 98L1080 96L1080 201L1060 201C1040 201 1000 201 960 201C920 201 880 201 840 201C800 201 760 201 720 201C680 201 640 201 600 201C560 201 520 201 480 201C440 201 400 201 360 201C320 201 280 201 240 201C200 201 160 201 120 201C80 201 40 201 20 201L0 201Z" fill="#85006f"></path><path d="M0 131L20 131.7C40 132.3 80 133.7 120 136C160 138.3 200 141.7 240 144.8C280 148 320 151 360 150C400 149 440 144 480 141.3C520 138.7 560 138.3 600 140.2C640 142 680 146 720 149.5C760 153 800 156 840 151.2C880 146.3 920 133.7 960 133C1000 132.3 1040 143.7 1060 149.3L1080 155L1080 201L1060 201C1040 201 1000 201 960 201C920 201 880 201 840 201C800 201 760 201 720 201C680 201 640 201 600 201C560 201 520 201 480 201C440 201 400 201 360 201C320 201 280 201 240 201C200 201 160 201 120 201C80 201 40 201 20 201L0 201Z" fill="#a60065"></path><path d="M0 158L20 160.7C40 163.3 80 168.7 120 169.3C160 170 200 166 240 166.7C280 167.3 320 172.7 360 175.3C400 178 440 178 480 174C520 170 560 162 600 159.8C640 157.7 680 161.3 720 162.2C760 163 800 161 840 159.2C880 157.3 920 155.7 960 157.2C1000 158.7 1040 163.3 1060 165.7L1080 168L1080 201L1060 201C1040 201 1000 201 960 201C920 201 880 201 840 201C800 201 760 201 720 201C680 201 640 201 600 201C560 201 520 201 480 201C440 201 400 201 360 201C320 201 280 201 240 201C200 201 160 201 120 201C80 201 40 201 20 201L0 201Z" fill="#c10e58"></path></svg>