<svg id="visual" viewBox="0 0 500 100" width="500" height="100" xmlns="http://www.w3.org/2000/svg" xmlns:xlink="http://www.w3.org/1999/xlink" version="1.1"><rect x="0" y="0" width="500" height="100" fill="#060730"></rect><path d="M0 66L4 63.8C8 61.7 16 57.3 24 59C32 60.7 40 68.3 47.8 69.7C55.7 71 63.3 66 71.2 66.3C79 66.7 87 72.3 95 75.7C103 79 111 80 119 77C127 74 135 67 143 62.7C151 58.3 159 56.7 166.8 59.2C174.7 61.7 182.3 68.3 190.2 69.2C198 70 206 65 214 62.2C222 59.3 230 58.7 238 59.7C246 60.7 254 63.3 262 66.3C270 69.3 278 72.7 286 74.2C294 75.7 302 75.3 309.8 76.5C317.7 77.7 325.3 80.3 333.2 79.3C341 78.3 349 73.7 357 73.3C365 73 373 77 381 74.3C389 71.7 397 62.3 405 61.2C413 60 421 67 428.8 70.5C436.7 74 444.3 74 452.2 73C460 72 468 70 476 68.3C484 66.7 492 65.3 496 64.7L500 64L500 0L496 0C492 0 484 0 476 0C468 0 460 0 452.2 0C444.3 0 436.7 0 428.8 0C421 0 413 0 405 0C397 0 389 0 381 0C373 0 365 0 357 0C349 0 341 0 333.2 0C325.3 0 317.7 0 309.8 0C302 0 294 0 286 0C278 0 270 0 262 0C254 0 246 0 238 0C230 0 222 0 214 0C206 0 198 0 190.2 0C182.3 0 174.7 0 166.8 0C159 0 151 0 143 0C135 0 127 0 119 0C111 0 103 0 95 0C87 0 79 0 71.2 0C63.3 0 55.7 0 47.8 0C40 0 32 0 24 0C16 0 8 0 4 0L0 0Z" fill="#a92e5b"></path><path d="M0 63L4 63C8 63 16 63 24 62.8C32 62.7 40 62.3 47.8 63.2C55.7 64 63.3 66 71.2 62.8C79 59.7 87 51.3 95 48.2C103 45 111 47 119 47.3C127 47.7 135 46.3 143 47C151 47.7 159 50.3 166.8 53.8C174.7 57.3 182.3 61.7 190.2 63.7C198 65.7 206 65.3 214 64.7C222 64 230 63 238 62C246 61 254 60 262 58C270 56 278 53 286 51.5C294 50 302 50 309.8 52.8C317.7 55.7 325.3 61.3 333.2 63C341 64.7 349 62.3 357 60.3C365 58.3 373 56.7 381 56.5C389 56.3 397 57.7 405 58.5C413 59.3 421 59.7 428.8 57.5C436.7 55.3 444.3 50.7 452.2 50.5C460 50.3 468 54.7 476 55.3C484 56 492 53 496 51.5L500 50L500 0L496 0C492 0 484 0 476 0C468 0 460 0 452.2 0C444.3 0 436.7 0 428.8 0C421 0 413 0 405 0C397 0 389 0 381 0C373 0 365 0 357 0C349 0 341 0 333.2 0C325.3 0 317.7 0 309.8 0C302 0 294 0 286 0C278 0 270 0 262 0C254 0 246 0 238 0C230 0 222 0 214 0C206 0 198 0 190.2 0C182.3 0 174.7 0 166.8 0C159 0 151 0 143 0C135 0 127 0 119 0C111 0 103 0 95 0C87 0 79 0 71.2 0C63.3 0 55.7 0 47.8 0C40 0 32 0 24 0C16 0 8 0 4 0L0 0Z" fill="#872c60"></path><path d="M0 54L4 54.5C8 55 16 56 24 56.2C32 56.3 40 55.7 47.8 53.2C55.7 50.7 63.3 46.3 71.2 45.2C79 44 87 46 95 48.7C103 51.3 111 54.7 119 53.3C127 52 135 46 143 44C151 42 159 44 166.8 43C174.7 42 182.3 38 190.2 38.8C198 39.7 206 45.3 214 47.8C222 50.3 230 49.7 238 47.2C246 44.7 254 40.3 262 37.7C270 35 278 34 286 35.8C294 37.7 302 42.3 309.8 45.2C317.7 48 325.3 49 333.2 46.8C341 44.7 349 39.3 357 37C365 34.7 373 35.3 381 35.8C389 36.3 397 36.7 405 37C413 37.3 421 37.7 428.8 39.8C436.7 42 444.3 46 452.2 47C460 48 468 46 476 46.8C484 47.7 492 51.3 496 53.2L500 55L500 0L496 0C492 0 484 0 476 0C468 0 460 0 452.2 0C444.3 0 436.7 0 428.8 0C421 0 413 0 405 0C397 0 389 0 381 0C373 0 365 0 357 0C349 0 341 0 333.2 0C325.3 0 317.7 0 309.8 0C302 0 294 0 286 0C278 0 270 0 262 0C254 0 246 0 238 0C230 0 222 0 214 0C206 0 198 0 190.2 0C182.3 0 174.7 0 166.8 0C159 0 151 0 143 0C135 0 127 0 119 0C111 0 103 0 95 0C87 0 79 0 71.2 0C63.3 0 55.7 0 47.8 0C40 0 32 0 24 0C16 0 8 0 4 0L0 0Z" fill="#622b5c"></path><path d="M0 26L4 28.3C8 30.7 16 35.3 24 36C32 36.7 40 33.3 47.8 32.3C55.7 31.3 63.3 32.7 71.2 32.3C79 32 87 30 95 28.7C103 27.3 111 26.7 119 28.5C127 30.3 135 34.7 143 37.2C151 39.7 159 40.3 166.8 38.2C174.7 36 182.3 31 190.2 29.7C198 28.3 206 30.7 214 30.7C222 30.7 230 28.3 238 27.5C246 26.7 254 27.3 262 27.2C270 27 278 26 286 26.5C294 27 302 29 309.8 31.5C317.7 34 325.3 37 333.2 38.7C341 40.3 349 40.7 357 40.3C365 40 373 39 381 37.5C389 36 397 34 405 33.8C413 33.7 421 35.3 428.8 35C436.7 34.7 444.3 32.3 452.2 31.2C460 30 468 30 476 31.3C484 32.7 492 35.3 496 36.7L500 38L500 0L496 0C492 0 484 0 476 0C468 0 460 0 452.2 0C444.3 0 436.7 0 428.8 0C421 0 413 0 405 0C397 0 389 0 381 0C373 0 365 0 357 0C349 0 341 0 333.2 0C325.3 0 317.7 0 309.8 0C302 0 294 0 286 0C278 0 270 0 262 0C254 0 246 0 238 0C230 0 222 0 214 0C206 0 198 0 190.2 0C182.3 0 174.7 0 166.8 0C159 0 151 0 143 0C135 0 127 0 119 0C111 0 103 0 95 0C87 0 79 0 71.2 0C63.3 0 55.7 0 47.8 0C40 0 32 0 24 0C16 0 8 0 4 0L0 0Z" fill="#402850"></path><path d="M0 21L4 21.2C8 21.3 16 21.7 24 23C32 24.3 40 26.7 47.8 28C55.7 29.3 63.3 29.7 71.2 28.3C79 27 87 24 95 22C103 20 111 19 119 19.2C127 19.3 135 20.7 143 22.2C151 23.7 159 25.3 166.8 26.5C174.7 27.7 182.3 28.3 190.2 28.8C198 29.3 206 29.7 214 27.5C222 25.3 230 20.7 238 18.5C246 16.3 254 16.7 262 17.7C270 18.7 278 20.3 286 20.2C294 20 302 18 309.8 16.8C317.7 15.7 325.3 15.3 333.2 16C341 16.7 349 18.3 357 18.3C365 18.3 373 16.7 381 17.2C389 17.7 397 20.3 405 20.5C413 20.7 421 18.3 428.8 17.8C436.7 17.3 444.3 18.7 452.2 20.3C460 22 468 24 476 25.8C484 27.7 492 29.3 496 30.2L500 31L500 0L496 0C492 0 484 0 476 0C468 0 460 0 452.2 0C444.3 0 436.7 0 428.8 0C421 0 413 0 405 0C397 0 389 0 381 0C373 0 365 0 357 0C349 0 341 0 333.2 0C325.3 0 317.7 0 309.8 0C302 0 294 0 286 0C278 0 270 0 262 0C254 0 246 0 238 0C230 0 222 0 214 0C206 0 198 0 190.2 0C182.3 0 174.7 0 166.8 0C159 0 151 0 143 0C135 0 127 0 119 0C111 0 103 0 95 0C87 0 79 0 71.2 0C63.3 0 55.7 0 47.8 0C40 0 32 0 24 0C16 0 8 0 4 0L0 0Z" fill="#24213e"></path><path d="M0 19L4 19C8 19 16 19 24 18.5C32 18 40 17 47.8 15C55.7 13 63.3 10 71.2 8.8C79 7.7 87 8.3 95 9.5C103 10.7 111 12.3 119 12.5C127 12.7 135 11.3 143 10.8C151 10.3 159 10.7 166.8 10.3C174.7 10 182.3 9 190.2 10.2C198 11.3 206 14.7 214 14.8C222 15 230 12 238 11.8C246 11.7 254 14.3 262 16.2C270 18 278 19 286 19C294 19 302 18 309.8 17C317.7 16 325.3 15 333.2 15C341 15 349 16 357 16C365 16 373 15 381 14.5C389 14 397 14 405 13C413 12 421 10 428.8 8.8C436.7 7.7 444.3 7.3 452.2 8.5C460 9.7 468 12.3 476 12.5C484 12.7 492 10.3 496 9.2L500 8L500 0L496 0C492 0 484 0 476 0C468 0 460 0 452.2 0C444.3 0 436.7 0 428.8 0C421 0 413 0 405 0C397 0 389 0 381 0C373 0 365 0 357 0C349 0 341 0 333.2 0C325.3 0 317.7 0 309.8 0C302 0 294 0 286 0C278 0 270 0 262 0C254 0 246 0 238 0C230 0 222 0 214 0C206 0 198 0 190.2 0C182.3 0 174.7 0 166.8 0C159 0 151 0 143 0C135 0 127 0 119 0C111 0 103 0 95 0C87 0 79 0 71.2 0C63.3 0 55.7 0 47.8 0C40 0 32 0 24 0C16 0 8 0 4 0L0 0Z" fill="#101728"></path></svg>